<?xml version="1.0" encoding="UTF-8" standalone="no"?>
<!-- Generator: Adobe Illustrator 17.1.0, SVG Export Plug-In . SVG Version: 6.00 Build 0)  -->

<svg
   xmlns:dc="http://purl.org/dc/elements/1.1/"
   xmlns:cc="http://creativecommons.org/ns#"
   xmlns:rdf="http://www.w3.org/1999/02/22-rdf-syntax-ns#"
   xmlns:svg="http://www.w3.org/2000/svg"
   xmlns="http://www.w3.org/2000/svg"
   xmlns:sodipodi="http://sodipodi.sourceforge.net/DTD/sodipodi-0.dtd"
   xmlns:inkscape="http://www.inkscape.org/namespaces/inkscape"
   version="1.1"
   id="Capa_1"
   x="0px"
   y="0px"
   viewBox="0 0 202.704 202.704"
   style="fill:#7a7979;"
   xml:space="preserve"
   sodipodi:docname="boss.svg"
   inkscape:version="0.92.3 (2405546, 2018-03-11)"><metadata
   id="metadata39"><rdf:RDF><cc:Work
       rdf:about=""><dc:format>image/svg+xml</dc:format><dc:type
         rdf:resource="http://purl.org/dc/dcmitype/StillImage" /></cc:Work></rdf:RDF></metadata><defs
   id="defs37" /><sodipodi:namedview
   pagecolor="#ffffff"
   bordercolor="#666666"
   borderopacity="1"
   objecttolerance="10"
   gridtolerance="10"
   guidetolerance="10"
   inkscape:pageopacity="0"
   inkscape:pageshadow="2"
   inkscape:window-width="1162"
   inkscape:window-height="803"
   id="namedview35"
   showgrid="false"
   inkscape:zoom="4.657037"
   inkscape:cx="153.97679"
   inkscape:cy="28.889871"
   inkscape:window-x="0"
   inkscape:window-y="33"
   inkscape:window-maximized="0"
   inkscape:current-layer="Capa_1" />
<path
   id="path2"
   d="M 102.78516,0 C 85.943104,0 79.907859,5.62425 77.755859,9.40625 c -0.885,-0.161 -1.927937,-0.2792969 -3.085937,-0.2792969 h -0.002 -0.0059 -0.002 -0.0039 c -4.722,0.003 -11.427328,1.9125159 -16.611328,10.9785159 l -0.0078,0.0098 c -0.007,0.013 -0.01348,0.02606 -0.02148,0.03906 -0.006,0.011 -0.01253,0.0222 -0.01953,0.0332 -0.003,0.006 -0.04197,0.07613 -0.04297,0.07813 h -0.002 c -0.002,0.004 -0.0098,0.01953 -0.0098,0.01953 -0.002,0.003 -0.0039,0.0048 -0.0059,0.0078 -7.92,14.058 -3.306266,23.663765 -1.197266,26.884765 -0.252,2.752 -0.287672,5.049 -0.263672,6.625 -1.361,0.69 -3.007453,1.876532 -4.314453,3.894532 -2.395,3.696 -2.77114,8.773809 -1.11914,15.091796 3.328,12.723 11.015672,14.722297 14.763672,14.904297 2.206997,4.478 8.194124,15.980471 13.953124,21.355471 2.085,1.947 4.821766,3.60101 8.134766,4.91601 4.287,1.701 8.815012,2.5625 13.458982,2.5625 4.643,0 9.17199,-0.8624 13.45899,-2.5664 3.313,-1.314 6.04876,-2.96706 8.13476,-4.91406 5.76,-5.37601 11.74808,-16.879427 13.95508,-21.357427 3.748,-0.182 11.43472,-2.181297 14.76172,-14.904297 1.652,-6.318 1.27686,-11.394797 -1.11914,-15.091797 -1.306,-2.018 -2.95345,-3.204531 -4.31445,-3.894531 0.002,-0.104 0.003,-0.213219 0.004,-0.324219 0.52,-1.808 2.36639,-8.719734 2.40039,-15.927734 v -0.01758 -0.01172 -0.01367 -0.002 -0.0078 -0.0039 -0.01172 -0.002 -0.002 c 0.01,-3.149 -0.33546,-5.982921 -1.02343,-8.419921 -1.57303,-5.564003 -7.98661,-16.283063 -18.47461,-21.414063 -5.521,-3.438 -14.38496,-7.51371875 -25.50196,-7.63671875 h -0.0273 -0.004 -0.0215 L 102.81836,0 h -0.0312 z m 0.002,6 0.75781,0.00781 h 0.0234 c 9.818,0.108 17.67039,3.7625977 22.52539,6.8085935 0.115,0.072 0.23247,0.13736 0.35547,0.19336 7.776,3.801 13.40191,11.96514 15.1289,16.86914 0.099,0.282 0.18677,0.5535 0.25977,0.8125 0.036,0.127 0.0695,0.255719 0.10352,0.386719 0.465,1.817 0.6984,3.958047 0.6914,6.373047 v 0.0098 0.0098 0.002 0.0039 0.0059 0.002 0.002 0.0078 0.002 0.0098 0.01367 c -0.01,2.154 -0.21028,4.309297 -0.48828,6.279297 -2.686,-2.035 -8.7965,-3.278156 -22.4375,-5.910156 -3.784,-0.73 -8.07164,-1.558563 -12.55664,-2.476563 -0.038,-0.008 -0.0753,-0.01448 -0.11328,-0.02148 -2.572,-0.465 -4.73097,-1.074547 -6.41797,-1.810547 -0.055,-0.024 -0.10901,-0.04345 -0.16602,-0.06445 -11.74993,-4.318 -17.015542,-12.005266 -17.060542,-12.072266 -0.562,-0.852 -1.508906,-1.347656 -2.503906,-1.347656 -0.193,0 -0.387985,0.01859 -0.583984,0.05859 -1.195,0.236 -2.129282,1.171187 -2.363282,2.367187 -0.44,2.251 -2.35047,8.920078 -5.855468,12.705078 -3.771001,4.073001 -8.388047,6.41286 -10.998047,7.50586 -1.489,-2.968 -3.438875,-9.713953 2.078125,-19.501953 10e-4,-0.002 0.0019,-0.0039 0.0039,-0.0059 0.002,-0.004 0.0039,-0.0058 0.0059,-0.0098 0.006,-0.011 0.01158,-0.0222 0.01758,-0.0332 0.004,-0.007 0.0077,-0.01253 0.01172,-0.01953 l 0.002,-0.002 0.0059,-0.0098 c 3.023,-5.323 6.875218,-8.021438 11.449218,-8.023438 h 0.0039 0.002 c 2.003,0 3.460922,0.545906 3.669922,0.628906 0.137,0.061 0.278781,0.111344 0.425781,0.152344 0.316,0.087 0.636078,0.121516 0.955078,0.103516 0.533,-0.028 1.035797,-0.198563 1.466797,-0.476563 0.272,-0.175 0.514703,-0.393343 0.720703,-0.652344 0.269,-0.339 0.468266,-0.740593 0.572266,-1.183593 0.018,-0.076 0.03192,-0.152516 0.04492,-0.228516 0.089,-0.365 1.995716,-7.0990311 18.845702,-7.4570311 h 0.0156 C 101.83882,6.0025984 102.30811,6 102.78711,6 Z M 82.244141,29.1875 c 3.188,3.08 8.43364,7.116641 16.05664,9.931641 2.084999,0.899 4.641419,1.628968 7.607419,2.167968 0.006,10e-4 0.0126,3.49e-4 0.0176,0.002 4.538,0.929001 8.84358,1.759188 12.64258,2.492188 9.038,1.744 18.38392,3.548391 19.91992,4.775391 1.27,1.206 1.69208,3.739125 1.7461,4.578125 -0.007,1.537 -0.082,2.460796 -0.082,2.466796 -0.132,1.558001 0.89941,2.946126 2.44141,3.203126 0.075,0.015 1.82266,0.396953 2.97266,2.251953 1.362,2.198 1.46206,5.729843 0.28906,10.214843 -2.375,9.081 -7.01531,10.4375 -9.57031,10.4375 -0.383,0 -0.62677,-0.03516 -0.63477,-0.03516 -1.356,-0.274 -2.73236,0.415828 -3.31836,1.673828 -0.071,0.154 -7.24947,15.49744 -13.48047,21.314454 -1.537,1.434 -3.6409,2.68761 -6.2539,3.72461 -3.58,1.421 -7.3631,2.14062 -11.2461,2.14062 -3.882966,0 -7.666091,-0.72062 -11.246091,-2.14062 -2.614,-1.038 -4.717895,-2.29061 -6.253907,-3.72461 -6.231054,-5.816057 -13.411421,-21.160454 -13.482421,-21.314454 -0.498,-1.069 -1.602719,-1.726562 -2.761719,-1.726562 -0.17,0 -0.341625,0.01387 -0.515625,0.04687 -0.002,0 -0.257734,0.04297 -0.677735,0.04297 -2.553997,-10e-7 -7.194312,-1.355503 -9.570312,-10.4375 -1.173,-4.485001 -1.072938,-8.016844 0.289062,-10.214844 1.15,-1.855 2.897969,-2.238141 2.917969,-2.244141 1.54,-0.256 2.626094,-1.654937 2.496094,-3.210937 -0.003,-0.032 -0.228242,-2.850485 0.0918,-7.021485 3.01,-1.175 8.944609,-3.979343 13.849609,-9.277343 2.765,-2.986002 4.60786,-6.934188 5.75586,-10.117188 z m -10.140625,87.83203 c -0.3985,-0.008 -0.798282,0.0619 -1.175782,0.21289 l -43.125,17.25 c -12.505,5.002 -20.5859371,16.93725 -20.5859371,30.40625 v 34.81445 c 0,1.65702 1.3429987,3 3.0000001,3 H 192.48633 c 1.658,0 3.00095,-1.34204 3.00195,-2.99804 v -34.81446 c 0,-13.46799 -8.07994,-25.40425 -20.58594,-30.40624 l -43.125,-17.25 c -0.755,-0.30201 -1.60079,-0.28652 -2.34179,0.0469 -0.742,0.333 -1.31775,0.9518 -1.59375,1.7168 l -12.69532,35.09765 -4.17578,-12.00781 3.68946,-9.02539 c 0.379,-0.925 0.27379,-1.97859 -0.28321,-2.80859 -0.557,-0.83 -1.49218,-1.32813 -2.49218,-1.32813 H 90.818359 c -1,0 -1.932234,0.49813 -2.490234,1.32813 -0.556,0.829 -0.664156,1.88359 -0.285156,2.80859 l 3.691406,9.02344 -4.175781,12.00781 -12.695313,-35.0957 c -0.277,-0.765 -0.85175,-1.3838 -1.59375,-1.7168 -0.3705,-0.1665 -0.767515,-0.25359 -1.166015,-0.26172 z m -1.826172,6.93555 14.515625,40.13281 c 0.432,1.194 1.532843,1.97452 2.839843,1.97852 1.27,-0.008 2.396454,-0.81563 2.814454,-2.01563 l 7.328125,-21.0664 c 0.239,-0.69104 0.218354,-1.4441 -0.05859,-2.1211 l -2.429688,-5.9375 h 12.130861 l -2.42969,5.9375 c -0.278,0.676 -0.29716,1.4311 -0.0566,2.1211 l 7.32617,21.0664 c 0.418,1.2 1.54346,2.00763 2.81446,2.01563 1.27,-0.008 2.40784,-0.78452 2.83984,-1.97852 l 14.51758,-40.13281 40.24414,16.09961 c 10.214,4.085 16.81445,13.83298 16.81445,24.83398 v 31.81445 H 13.216797 v -31.81445 c 0,-11.002 6.5985,-20.74898 16.8125,-24.83398 z" />
<g
   id="g4">
</g>
<g
   id="g6">
</g>
<g
   id="g8">
</g>
<g
   id="g10">
</g>
<g
   id="g12">
</g>
<g
   id="g14">
</g>
<g
   id="g16">
</g>
<g
   id="g18">
</g>
<g
   id="g20">
</g>
<g
   id="g22">
</g>
<g
   id="g24">
</g>
<g
   id="g26">
</g>
<g
   id="g28">
</g>
<g
   id="g30">
</g>
<g
   id="g32">
</g>
</svg>