<?xml version="1.0" encoding="utf-8"?>
<!-- Generator: Adobe Illustrator 21.0.0, SVG Export Plug-In . SVG Version: 6.00 Build 0)  -->
<svg version="1.1" id="Слой_1" xmlns="http://www.w3.org/2000/svg" xmlns:xlink="http://www.w3.org/1999/xlink" x="0px" y="0px"
	 viewBox="0 0 109.9 112.3" style="enable-background:new 0 0 109.9 112.3;" xml:space="preserve">
<style type="text/css">
	.st0{fill:#BBCF02;}
	.st1{fill:#00B1ED;}
	.st2{fill:#007ABD;}
	.st3{fill:#6F4081;}
	.st4{fill:#A61580;}
	.st5{fill:#DE0820;}
	.st6{fill:#F8B30C;}
	.st7{fill:#EFE403;}
	.st8{fill:#008BB2;}
	.st9{fill:#006193;}
	.st10{fill:#612F67;}
	.st11{fill:#9A1068;}
	.st12{fill:#CB0C15;}
	.st13{fill:#CF8900;}
	.st14{fill:#B9AC00;}
	.st15{fill:#889D00;}
</style>
<path class="st0" d="M40,62.5c0,0,9.4,26.6,35.4,28.8c0,0,15.2,2.5,31-11.3c0.5-0.5,0.6-1.5,0.7-2c0.2-2.7,1-10.2-4.9-19.2
	c0,0-2.6,5.6-11.7,11.1c0,0,1.9,4.8,0.5,8c-1.1,2.3-3.7,3.6-3.7,3.6S60,96.1,40,62.5z"/>
<path class="st1" d="M48.8,70.1c0,0,25.4,12.3,45.4-4.4c0,0,12.5-8.9,14.1-29.9c0.1-0.7-0.6-1.5-0.9-1.9c-1.8-2.1-6.1-7.7-16.6-9.9
	c0,0,1.4,5.9-1.2,15.7c0,0,5,2.2,6.3,5.5c0.9,2.4-0.1,5.1-0.1,5.1S86.7,79.9,48.8,70.1z"/>
<path class="st2" d="M62.4,69.1c0,0,26.1-10.6,27.2-36.6c0,0,1.8-15.3-12.7-30.5c-0.5-0.5-1.6-0.6-2-0.6c-2.7,0-10.8,0-18.4,5.4
	c0,0,6.3,2.6,11.6,11.3c0,0,4.3-2,7.6-0.7c2.4,0.9,3.8,3.5,3.8,3.5S95,47.6,62.4,69.1z"/>
<path class="st3" d="M69.3,59.8c0,0,11.5-25.7-5.8-45.2c0,0-9.3-12.3-30.3-13.1c-0.7,0-1.5,0.7-1.9,1c-2,1.9-7.7,6.9-9.5,16.5
	c0,0,6.2-2.2,16.1,0.3c0,0,1.7-4.4,5-5.7c2.4-1,5.1-0.1,5.1-0.1S77.9,21.7,69.3,59.8z"/>
<path class="st4" d="M67.9,47.5c0,0-10.2-26.3-36.2-27.7c0,0-15.2-2-30.7,12.2c-0.5,0.5-0.6,1.5-0.6,2c-0.1,2.7-0.1,10.6,5.2,18.6
	c0,0,2.6-5.7,11.4-11.4c0,0-1.9-4.3-0.6-7.6c1-2.4,3.5-3.7,3.5-3.7S46.9,14.5,67.9,47.5z"/>
<path class="st5" d="M58.3,39.9c0,0-25.7-11.5-45.2,5.8C13.1,45.7,0.8,55,0,76c0,0.7,0.7,1.5,1,1.9c1.9,2,6.4,7.5,16.5,9.5
	c0,0-2.1-6.2,0.2-16.2c0,0-4.2-1.6-5.6-4.9c-1-2.4-0.1-5.1-0.1-5.1S20.2,31.3,58.3,39.9z"/>
<path class="st6" d="M43.1,42.4c0,0-25.5,12-25.1,38.1c0,0-1,15.4,14.3,29.7c0.5,0.5,1.6,0.5,2.1,0.5c2.7-0.1,9.5,0,17.4-6
	c0,0-6.5-2.8-11.6-11.1c0,0-4,2.1-7.4,1c-2.4-0.8-3.9-3.3-3.9-3.3S11.7,65.6,43.1,42.4z"/>
<path class="st7" d="M38.5,51.6c0,0-11.5,25.7,5.8,45.2c0,0,9.3,12.3,30.3,13.2c0.7,0,1.5-0.7,1.9-1c2-1.9,7.7-6.9,9.6-17
	c0,0-5.3,2.3-16.2,0c0,0-1.8,4.5-5.1,5.9c-2.4,1-5.1,0.1-5.1,0.1S29.9,89.7,38.5,51.6z"/>
<path class="st8" d="M88.6,39.4l1.6,0.6c0,0,4.1-5.2,6.2-14.3c0,0-4.5-2-7.7-2.1C88.8,23.6,90.4,30.5,88.6,39.4z"/>
<path class="st9" d="M66.7,18.8l1.2-0.6c0,0-0.8-6.6-5.7-14.6c0,0-4.7,1.8-7,4C55.2,7.7,60.9,10.8,66.7,18.8z"/>
<path class="st10" d="M37.4,20.5l0.5-1.2c0,0-5.1-4.3-14.2-6.7c0,0-2.2,4.9-2.3,8.1C21.4,20.7,28.8,18.6,37.4,20.5z"/>
<path class="st11" d="M17.7,42.2L17,41c0,0-6.5,0.5-14.6,5.2c0,0,1.9,5.2,4.1,7.5C6.4,53.7,10.1,47,17.7,42.2z"/>
<path class="st12" d="M18.9,71.7l-1.2-0.5c0,0-4.3,5.2-6.9,14.1c0,0,5,2.4,8.1,2.5C18.9,87.9,16.8,80.3,18.9,71.7z"/>
<path class="st13" d="M41.5,93l-1.3,0.6c0,0,1,6.6,5.7,14.6c0,0,5.2-2.2,7.5-4.3C53.4,104,46,99.9,41.5,93z"/>
<path class="st14" d="M70.3,90.5l-0.5,1.6c0,0,5.1,4.1,14,6.8c0,0,2.4-5.3,2.6-8.5C86.4,90.5,78.3,92.5,70.3,90.5z"/>
<path class="st15" d="M89.8,68.9l0.9,1.9c0,0,6.5-0.9,14.7-5.3c0,0-2-5.4-4.2-7.8C101.3,57.6,96.8,64.6,89.8,68.9z"/>
</svg>
